<svg width="566" height="435" viewBox="0 0 566 435" fill="none" xmlns="http://www.w3.org/2000/svg">
<g clip-path="url(#clip0_70_2213)">
<path opacity="0.05" d="M511.301 247.392L302.628 39.34L263.133 0L223.639 39.34L117.141 145.421L116.551 146.008V307.087L0.818359 422.367V616.523H522.697V258.548L511.301 247.196V247.392ZM353.519 449.964H172.355V330.182L262.347 240.542L353.715 331.552V449.964H353.519ZM466.894 561.133H56.6216V445.462L116.748 385.571V505.548H409.322V308.653C409.518 308.653 353.715 253.068 353.715 253.068L301.645 201.202L262.151 161.862L172.158 251.502V169.103L262.937 78.68L466.697 281.643V561.133H466.894Z" fill="#016C51"/>
</g>
<defs>
<clipPath id="clip0_70_2213">
<path d="M0 0H566V435H30C13.4315 435 0 421.569 0 405V0Z" fill="white"/>
</clipPath>
</defs>
</svg>
