<svg width="36" height="46" viewBox="0 0 36 46" fill="none" xmlns="http://www.w3.org/2000/svg">
<path d="M18 0C13.2278 0.00543531 8.65254 1.91115 5.27806 5.29906C1.90357 8.68696 0.00541377 13.2804 0 18.0716C0 33.5352 16.3636 45.2139 17.0611 45.7027C17.3363 45.8962 17.6641 46 18 46C18.3359 46 18.6637 45.8962 18.9389 45.7027C19.6364 45.2139 36 33.5352 36 18.0716C35.9946 13.2804 34.0964 8.68696 30.7219 5.29906C27.3475 1.91115 22.7722 0.00543531 18 0ZM18 11.5001C19.2946 11.5001 20.5601 11.8855 21.6365 12.6076C22.7129 13.3297 23.5518 14.356 24.0472 15.5568C24.5426 16.7576 24.6722 18.0789 24.4197 19.3536C24.1671 20.6284 23.5437 21.7993 22.6283 22.7184C21.7129 23.6374 20.5466 24.2633 19.277 24.5168C18.0073 24.7704 16.6912 24.6403 15.4952 24.1429C14.2991 23.6455 13.2769 22.8032 12.5577 21.7225C11.8384 20.6419 11.4545 19.3713 11.4545 18.0716C11.4545 16.3287 12.1442 14.6573 13.3717 13.4249C14.5992 12.1925 16.264 11.5001 18 11.5001Z" fill="#016C51"/>
</svg>
