<svg width="239" height="266" viewBox="0 0 239 266" fill="none" xmlns="http://www.w3.org/2000/svg">
<path opacity="0.05" d="M282.534 151.279L154.982 24.0562L130.841 0L106.7 24.0562L41.6024 88.9241L41.2421 89.2832V187.782L-29.5 258.275V377H289.5V158.101L282.534 151.159V151.279ZM186.089 275.15H75.352V201.904L130.36 147.09L186.209 202.742V275.15H186.089ZM255.39 343.13H4.60993V272.397L41.3622 235.775V309.14H220.199V188.739C220.319 188.739 186.209 154.75 186.209 154.75L154.381 123.034L130.24 98.9775L75.2319 153.792V103.406L130.721 48.1124L255.27 172.223V343.13H255.39Z" fill="white"/>
</svg>
