<svg width="319" height="271" viewBox="0 0 319 271" fill="none" xmlns="http://www.w3.org/2000/svg">
<path opacity="0.05" d="M312.034 151.279L184.482 24.0562L160.341 0L136.2 24.0562L71.1024 88.9241L70.7421 89.2832V187.782L0 258.275V377H319V158.101L312.034 151.159V151.279ZM215.589 275.15H104.852V201.904L159.86 147.09L215.709 202.742V275.15H215.589ZM284.89 343.13H34.1099V272.397L70.8622 235.775V309.14H249.699V188.739C249.819 188.739 215.709 154.75 215.709 154.75L183.881 123.034L159.74 98.9775L104.732 153.792V103.406L160.221 48.1124L284.77 172.223V343.13H284.89Z" fill="#016C51"/>
</svg>
